<?xml version="1.0" encoding="utf-8"?>
<!-- Generator: Adobe Illustrator 24.0.0, SVG Export Plug-In . SVG Version: 6.00 Build 0)  -->
<svg version="1.1" id="Calque_1" xmlns="http://www.w3.org/2000/svg" xmlns:xlink="http://www.w3.org/1999/xlink" x="0px" y="0px"
	 viewBox="0 0 1110 214" style="enable-background:new 0 0 1110 214;" xml:space="preserve">
<style type="text/css">
	.st0{fill:#F7DF1E;}
</style>
<rect class="st0" width="1110" height="214"/>
<path d="M989.1,144.6c8.1,13.2,18.6,22.9,37.3,22.9c15.6,0,25.6-7.8,25.6-18.6c0-13-10.3-17.5-27.5-25.1l-9.4-4.1
	c-27.3-11.6-45.4-26.2-45.4-56.9c0-28.3,21.6-49.9,55.3-49.9c24,0,41.3,8.4,53.7,30.2l-29.4,18.9c-6.5-11.6-13.5-16.2-24.3-16.2
	c-11.1,0-18.1,7-18.1,16.2c0,11.3,7,15.9,23.2,22.9l9.4,4c32.1,13.8,50.2,27.8,50.2,59.3c0,34-26.7,52.6-62.6,52.6
	c-35.1,0-57.7-16.7-68.8-38.6L989.1,144.6z M855.7,147.9c5.9,10.5,11.3,19.4,24.3,19.4c12.4,0,20.2-4.9,20.2-23.7V15.1H938v128.9
	c0,39.1-22.9,56.9-56.4,56.9c-30.2,0-47.8-15.6-56.7-34.5L855.7,147.9z"/>
</svg>
